<svg width="24" height="24" viewBox="0 0 24 24" fill="none" xmlns="http://www.w3.org/2000/svg">
<path d="M4 19V17.2C4 16.6333 4.146 16.1127 4.438 15.638C4.73 15.1633 5.11733 14.8007 5.6 14.55C6.63333 14.0333 7.68333 13.646 8.75 13.388C9.81667 13.13 10.9 13.0007 12 13C12.6167 13 13.225 13.0377 13.825 13.113C14.425 13.1883 15.025 13.309 15.625 13.475L13.95 15.175C13.6167 15.125 13.2917 15.0833 12.975 15.05C12.6583 15.0167 12.3333 15 12 15C11.0667 15 10.1417 15.1127 9.225 15.338C8.30833 15.5633 7.4 15.9007 6.5 16.35C6.35 16.4333 6.229 16.55 6.137 16.7C6.045 16.85 5.99933 17.0167 6 17.2V18H12V20H5C4.71667 20 4.47933 19.904 4.288 19.712C4.09667 19.52 4.00067 19.2827 4 19ZM14 20V18.75C14 18.4833 14.0543 18.229 14.163 17.987C14.2717 17.745 14.4173 17.5327 14.6 17.35L19.525 12.425C19.675 12.275 19.8417 12.1667 20.025 12.1C20.2083 12.0333 20.3917 12 20.575 12C20.775 12 20.9667 12.0377 21.15 12.113C21.3333 12.1883 21.5 12.3007 21.65 12.45L22.575 13.375C22.7083 13.525 22.8127 13.6917 22.888 13.875C22.9633 14.0583 23.0007 14.2417 23 14.425C22.9993 14.6083 22.966 14.796 22.9 14.988C22.834 15.18 22.7257 15.3507 22.575 15.5L17.65 20.425C17.4667 20.6083 17.2543 20.75 17.013 20.85C16.7717 20.95 16.5173 21 16.25 21H15C14.7167 21 14.4793 20.904 14.288 20.712C14.0967 20.52 14.0007 20.2827 14 20ZM15.5 19.5H16.45L19.475 16.45L19.025 15.975L18.55 15.525L15.5 18.55V19.5ZM19.025 15.975L18.55 15.525L19.475 16.45L19.025 15.975ZM12 12C10.9 12 9.95833 11.6083 9.175 10.825C8.39167 10.0417 8 9.1 8 8C8 6.9 8.39167 5.95833 9.175 5.175C9.95833 4.39167 10.9 4 12 4C13.1 4 14.0417 4.39167 14.825 5.175C15.6083 5.95833 16 6.9 16 8C16 9.1 15.6083 10.0417 14.825 10.825C14.0417 11.6083 13.1 12 12 12ZM12 10C12.55 10 13.021 9.80433 13.413 9.413C13.805 9.02167 14.0007 8.55067 14 8C13.9993 7.44933 13.8037 6.97867 13.413 6.588C13.0223 6.19733 12.5513 6.00133 12 6C11.4487 5.99867 10.978 6.19467 10.588 6.588C10.198 6.98133 10.002 7.452 10 8C9.998 8.548 10.194 9.019 10.588 9.413C10.982 9.807 11.4527 10.0027 12 10Z" fill="black"/>
</svg>
