<svg width="24" height="24" viewBox="0 0 24 24" fill="none" xmlns="http://www.w3.org/2000/svg">
<path d="M12 13.4L9.08299 16.325C8.89833 16.5084 8.66366 16.6 8.37899 16.6C8.09433 16.6 7.85966 16.5084 7.67499 16.325C7.49166 16.1417 7.39999 15.9084 7.39999 15.625C7.39999 15.3417 7.49166 15.1084 7.67499 14.925L10.6 12L7.67499 9.10805C7.49166 8.92338 7.39999 8.68872 7.39999 8.40405C7.39999 8.11938 7.49166 7.88472 7.67499 7.70005C7.85833 7.51672 8.09166 7.42505 8.37499 7.42505C8.65833 7.42505 8.89166 7.51672 9.07499 7.70005L12 10.625L14.892 7.70005C15.0767 7.51672 15.3113 7.42505 15.596 7.42505C15.8807 7.42505 16.1153 7.51672 16.3 7.70005C16.5 7.90005 16.6 8.13772 16.6 8.41305C16.6 8.68838 16.5 8.91738 16.3 9.10005L13.375 12L16.3 14.917C16.4833 15.1017 16.575 15.3364 16.575 15.621C16.575 15.9057 16.4833 16.1404 16.3 16.325C16.1 16.525 15.8627 16.625 15.588 16.625C15.3133 16.625 15.084 16.525 14.9 16.325L12 13.4Z" fill="#AFB1B6"/>
</svg>
