<svg width="40" height="40" viewBox="0 0 40 40" fill="none" xmlns="http://www.w3.org/2000/svg">
<circle cx="20" cy="20" r="20" fill="#72BF78"/>
<path d="M11.6667 21.6663C11.2246 21.6663 10.8007 21.4907 10.4882 21.1782C10.1756 20.8656 10 20.4417 10 19.9997C10 19.5576 10.1756 19.1337 10.4882 18.8212C10.8007 18.5086 11.2246 18.333 11.6667 18.333H28.3333C28.7754 18.333 29.1993 18.5086 29.5118 18.8212C29.8244 19.1337 30 19.5576 30 19.9997C30 20.4417 29.8244 20.8656 29.5118 21.1782C29.1993 21.4907 28.7754 21.6663 28.3333 21.6663H11.6667Z" fill="white"/>
<path d="M18.3333 11.6667C18.3333 11.2246 18.5088 10.8007 18.8214 10.4882C19.134 10.1756 19.5579 10 19.9999 10C20.4419 10 20.8659 10.1756 21.1784 10.4882C21.491 10.8007 21.6666 11.2246 21.6666 11.6667V28.3333C21.6666 28.7754 21.491 29.1993 21.1784 29.5118C20.8659 29.8244 20.4419 30 19.9999 30C19.5579 30 19.134 29.8244 18.8214 29.5118C18.5088 29.1993 18.3333 28.7754 18.3333 28.3333V11.6667Z" fill="white"/>
</svg>
