<svg width="24" height="24" viewBox="0 0 24 24" fill="none" xmlns="http://www.w3.org/2000/svg">
<path d="M15 12C15 12.7956 14.6839 13.5587 14.1213 14.1213C13.5587 14.6839 12.7956 15 12 15C11.2044 15 10.4413 14.6839 9.87868 14.1213C9.31607 13.5587 9 12.7956 9 12C9 11.2044 9.31607 10.4413 9.87868 9.87868C10.4413 9.31607 11.2044 9 12 9C12.7956 9 13.5587 9.31607 14.1213 9.87868C14.6839 10.4413 15 11.2044 15 12ZM7.914 4.245C8.10074 3.87095 8.388 3.55633 8.74356 3.33642C9.09913 3.11651 9.50893 3.00001 9.927 3H14.073C14.4911 3.00001 14.9009 3.11651 15.2564 3.33642C15.612 3.55633 15.8993 3.87095 16.086 4.245L16.9635 6H18C18.7956 6 19.5587 6.31607 20.1213 6.87868C20.6839 7.44129 21 8.20435 21 9V16.5C21 17.2956 20.6839 18.0587 20.1213 18.6213C19.5587 19.1839 18.7956 19.5 18 19.5H6C5.20435 19.5 4.44129 19.1839 3.87868 18.6213C3.31607 18.0587 3 17.2956 3 16.5V9C3 8.20435 3.31607 7.44129 3.87868 6.87868C4.44129 6.31607 5.20435 6 6 6H7.0365L7.914 4.245ZM16.5 12C16.5 10.8065 16.0259 9.66193 15.182 8.81802C14.3381 7.97411 13.1935 7.5 12 7.5C10.8065 7.5 9.66193 7.97411 8.81802 8.81802C7.97411 9.66193 7.5 10.8065 7.5 12C7.5 13.1935 7.97411 14.3381 8.81802 15.182C9.66193 16.0259 10.8065 16.5 12 16.5C13.1935 16.5 14.3381 16.0259 15.182 15.182C16.0259 14.3381 16.5 13.1935 16.5 12Z" fill="black"/>
</svg>
