<svg width="24" height="24" viewBox="0 0 24 24" fill="none" xmlns="http://www.w3.org/2000/svg">
<path d="M4.88889 17C4.63704 17 4.42608 16.92 4.256 16.76C4.08593 16.6 4.0006 16.4022 4 16.1667C3.99941 15.9311 4.08474 15.7333 4.256 15.5733C4.42726 15.4133 4.63823 15.3333 4.88889 15.3333H19.1111C19.363 15.3333 19.5742 15.4133 19.7449 15.5733C19.9156 15.7333 20.0006 15.9311 20 16.1667C19.9994 16.4022 19.9141 16.6003 19.744 16.7608C19.5739 16.9214 19.363 17.0011 19.1111 17H4.88889ZM4.88889 12.8333C4.63704 12.8333 4.42608 12.7533 4.256 12.5933C4.08593 12.4333 4.0006 12.2355 4 12C3.99941 11.7644 4.08474 11.5667 4.256 11.4067C4.42726 11.2467 4.63823 11.1667 4.88889 11.1667H19.1111C19.363 11.1667 19.5742 11.2467 19.7449 11.4067C19.9156 11.5667 20.0006 11.7644 20 12C19.9994 12.2355 19.9141 12.4336 19.744 12.5942C19.5739 12.7547 19.363 12.8344 19.1111 12.8333H4.88889ZM4.88889 8.66666C4.63704 8.66666 4.42608 8.58666 4.256 8.42666C4.08593 8.26666 4.0006 8.06889 4 7.83333C3.99941 7.59778 4.08474 7.4 4.256 7.24C4.42726 7.08 4.63823 7 4.88889 7H19.1111C19.363 7 19.5742 7.08 19.7449 7.24C19.9156 7.4 20.0006 7.59778 20 7.83333C19.9994 8.06889 19.9141 8.26694 19.744 8.4275C19.5739 8.58805 19.363 8.66778 19.1111 8.66666H4.88889Z" fill="black"/>
</svg>
