<svg width="18" height="18" viewBox="0 0 18 18" fill="none" xmlns="http://www.w3.org/2000/svg">
<path d="M6.6375 12.6187L9 11.1937L11.3625 12.6374L10.7438 9.9374L12.825 8.1374L10.0875 7.89365L9 5.34365L7.9125 7.8749L5.175 8.11865L7.25625 9.9374L6.6375 12.6187ZM9 12.9562L5.8875 14.8312C5.75 14.9187 5.60625 14.9562 5.45625 14.9437C5.30625 14.9312 5.175 14.8812 5.0625 14.7937C4.95 14.7062 4.8625 14.5969 4.8 14.4659C4.7375 14.3349 4.725 14.1879 4.7625 14.0249L5.5875 10.4812L2.83125 8.0999C2.70625 7.9874 2.62825 7.85915 2.59725 7.71515C2.56625 7.57115 2.5755 7.43065 2.625 7.29365C2.6745 7.15665 2.7495 7.04415 2.85 6.95615C2.9505 6.86815 3.088 6.8119 3.2625 6.7874L6.9 6.46865L8.30625 3.13115C8.36875 2.98115 8.46575 2.86865 8.59725 2.79365C8.72875 2.71865 8.863 2.68115 9 2.68115C9.137 2.68115 9.27125 2.71865 9.40275 2.79365C9.53425 2.86865 9.63125 2.98115 9.69375 3.13115L11.1 6.46865L14.7375 6.7874C14.9125 6.8124 15.05 6.86865 15.15 6.95615C15.25 7.04365 15.325 7.15615 15.375 7.29365C15.425 7.43115 15.4345 7.5719 15.4035 7.7159C15.3725 7.8599 15.2943 7.9879 15.1688 8.0999L12.4125 10.4812L13.2375 14.0249C13.275 14.1874 13.2625 14.3344 13.2 14.4659C13.1375 14.5974 13.05 14.7067 12.9375 14.7937C12.825 14.8807 12.6938 14.9307 12.5438 14.9437C12.3938 14.9567 12.25 14.9192 12.1125 14.8312L9 12.9562Z" fill="#FFD000"/>
</svg>
