<svg width="16" height="16" viewBox="0 0 16 16" fill="none" xmlns="http://www.w3.org/2000/svg">
<path d="M12.3847 4.12195C12.4562 4.17245 12.5171 4.23656 12.5638 4.3106C12.6106 4.38464 12.6423 4.46717 12.6572 4.55347C12.672 4.63977 12.6697 4.72815 12.6504 4.81357C12.6311 4.89899 12.5952 4.97976 12.5447 5.05128L8.76732 10.398C8.52732 10.7366 8.32399 11.0246 8.14065 11.2439C7.94932 11.4706 7.73399 11.6826 7.44865 11.8173C7.02581 12.018 6.54346 12.0543 6.09532 11.9193C5.79132 11.8279 5.54865 11.6486 5.32932 11.4513C5.11932 11.2613 4.88132 11.006 4.60265 10.7073L3.51265 9.53862C3.4506 9.47506 3.40188 9.39975 3.36934 9.3171C3.3368 9.23446 3.32111 9.14614 3.32318 9.05735C3.32525 8.96855 3.34504 8.88106 3.3814 8.80002C3.41775 8.71898 3.46994 8.64602 3.53488 8.58543C3.59983 8.52484 3.67622 8.47783 3.75959 8.44718C3.84295 8.41653 3.9316 8.40284 4.02033 8.40693C4.10906 8.41101 4.19607 8.43279 4.27627 8.47097C4.35646 8.50916 4.42822 8.56298 4.48732 8.62928L5.55799 9.77728C5.86132 10.102 6.06065 10.3146 6.22332 10.4619C6.38332 10.6059 6.45265 10.6346 6.47999 10.6426C6.61065 10.6826 6.74999 10.6726 6.87865 10.612C6.90932 10.5973 6.97799 10.5553 7.11865 10.3866C7.26265 10.2153 7.43399 9.97328 7.69399 9.60595L11.4553 4.28195C11.5058 4.21041 11.5699 4.14952 11.644 4.10276C11.718 4.056 11.8005 4.02428 11.8868 4.00942C11.9731 3.99456 12.0615 3.99685 12.1469 4.01616C12.2324 4.03547 12.3131 4.07142 12.3847 4.12195Z" fill="white"/>
</svg>
