<svg width="18" height="18" viewBox="0 0 18 18" fill="none" xmlns="http://www.w3.org/2000/svg">
<path d="M8.99998 10.0501L5.32498 13.7251C5.18748 13.8626 5.01248 13.9313 4.79998 13.9313C4.58748 13.9313 4.41248 13.8626 4.27498 13.7251C4.13748 13.5876 4.06873 13.4126 4.06873 13.2001C4.06873 12.9876 4.13748 12.8126 4.27498 12.6751L7.94998 9.0001L4.27498 5.3251C4.13748 5.1876 4.06873 5.0126 4.06873 4.8001C4.06873 4.5876 4.13748 4.4126 4.27498 4.2751C4.41248 4.1376 4.58748 4.06885 4.79998 4.06885C5.01248 4.06885 5.18748 4.1376 5.32498 4.2751L8.99998 7.9501L12.675 4.2751C12.8125 4.1376 12.9875 4.06885 13.2 4.06885C13.4125 4.06885 13.5875 4.1376 13.725 4.2751C13.8625 4.4126 13.9312 4.5876 13.9312 4.8001C13.9312 5.0126 13.8625 5.1876 13.725 5.3251L10.05 9.0001L13.725 12.6751C13.8625 12.8126 13.9312 12.9876 13.9312 13.2001C13.9312 13.4126 13.8625 13.5876 13.725 13.7251C13.5875 13.8626 13.4125 13.9313 13.2 13.9313C12.9875 13.9313 12.8125 13.8626 12.675 13.7251L8.99998 10.0501Z" fill="#8EB486"/>
</svg>
