<svg width="34" height="34" viewBox="0 0 34 34" fill="none" xmlns="http://www.w3.org/2000/svg">
<path d="M17 18.9834L12.8676 23.1271C12.606 23.3869 12.2735 23.5167 11.8703 23.5167C11.467 23.5167 11.1345 23.3869 10.8729 23.1271C10.6132 22.8674 10.4833 22.5369 10.4833 22.1355C10.4833 21.7341 10.6132 21.4035 10.8729 21.1438L15.0167 17L10.8729 12.903C10.6132 12.6414 10.4833 12.309 10.4833 11.9057C10.4833 11.5024 10.6132 11.17 10.8729 10.9084C11.1326 10.6487 11.4632 10.5188 11.8646 10.5188C12.266 10.5188 12.5965 10.6487 12.8563 10.9084L17 15.0521L21.097 10.9084C21.3586 10.6487 21.6911 10.5188 22.0943 10.5188C22.4976 10.5188 22.8301 10.6487 23.0917 10.9084C23.375 11.1917 23.5167 11.5284 23.5167 11.9185C23.5167 12.3085 23.375 12.6329 23.0917 12.8917L18.9479 17L23.0917 21.1325C23.3514 21.3941 23.4813 21.7265 23.4813 22.1298C23.4813 22.5331 23.3514 22.8655 23.0917 23.1271C22.8083 23.4105 22.4721 23.5521 22.083 23.5521C21.6939 23.5521 21.369 23.4105 21.1083 23.1271L17 18.9834Z" fill="black"/>
</svg>
