<svg width="48" height="48" viewBox="0 0 48 48" fill="none" xmlns="http://www.w3.org/2000/svg">
<g clip-path="url(#clip0_2505_562)">
<path d="M-0.0750122 35.0325C-0.0750122 40.2375 10.6687 44.4488 23.9212 44.4488C37.1737 44.4488 47.9212 40.2375 47.9212 35.0325C47.9212 29.8313 47.37 3.55127 23.9212 3.55127C0.476238 3.55127 -0.0750122 29.8313 -0.0750122 35.0325Z" fill="#FCC21B"/>
<path d="M11.67 23.7901C11.5763 23.7901 11.4863 23.7901 11.3925 23.7863C11.1196 23.7756 10.8621 23.657 10.6765 23.4567C10.4909 23.2563 10.3924 22.9905 10.4025 22.7176C10.425 22.1476 10.9013 21.7013 11.4713 21.7276C13.7925 21.8176 15.84 20.3063 16.4438 18.0563C16.59 17.5051 17.1563 17.1788 17.7075 17.3288C18.2588 17.4751 18.585 18.0413 18.435 18.5926C17.6063 21.6826 14.8463 23.7901 11.67 23.7901ZM36.1763 23.7901C33 23.7901 30.24 21.6826 29.4113 18.5851C29.3412 18.3211 29.3784 18.0401 29.5147 17.8033C29.6509 17.5666 29.8753 17.3933 30.1388 17.3213C30.69 17.1751 31.2563 17.5013 31.4025 18.0488C32.0063 20.2988 34.0538 21.8101 36.375 21.7201C36.6477 21.7109 36.9129 21.8098 37.1131 21.9952C37.3132 22.1806 37.432 22.4375 37.4438 22.7101C37.4663 23.2801 37.0238 23.7601 36.4538 23.7788C36.36 23.7901 36.27 23.7901 36.1763 23.7901Z" fill="#2F2F2F"/>
<path d="M2.59875 25.3275C2.98875 27.0862 4.13625 28.1812 5.10375 28.4812C6.1875 28.815 7.17 28.6537 7.87125 28.0312C8.76 27.24 9.0675 25.8412 8.745 24.09C8.15625 20.9437 8.5725 15.4012 8.57625 15.3487C8.59125 15.135 8.48625 14.94 8.29125 14.85C8.10375 14.7525 7.87875 14.79 7.72125 14.9325C2.34375 19.8225 2.20125 23.5425 2.59875 25.3275Z" fill="white"/>
<path d="M31.815 25.7961C28.26 25.7961 27.0863 27.5436 23.9213 27.5436C20.7563 27.5436 19.5825 25.7961 16.0275 25.7961C12.4725 25.7961 9.59253 28.2936 9.59253 31.3761C9.59253 34.4586 12.4725 36.9561 16.0275 36.9561C19.5825 36.9561 20.7563 35.2086 23.9213 35.2086C27.0863 35.2086 28.26 36.9561 31.815 36.9561C35.37 36.9561 38.25 34.4549 38.25 31.3724C38.25 28.2936 35.37 25.7961 31.815 25.7961Z" fill="#ED6C30"/>
</g>
<defs>
<clipPath id="clip0_2505_562">
<rect width="48" height="48" fill="white"/>
</clipPath>
</defs>
</svg>
