<svg width="80" height="80" viewBox="0 0 80 80" fill="none" xmlns="http://www.w3.org/2000/svg">
<path d="M23 73.6667C21.1667 73.6667 19.5978 73.0144 18.2933 71.71C16.9889 70.4056 16.3356 68.8356 16.3333 67C16.3311 65.1644 16.9845 63.5956 18.2933 62.2933C19.6022 60.9911 21.1711 60.3378 23 60.3333C24.8289 60.3289 26.3989 60.9822 27.71 62.2933C29.0211 63.6044 29.6733 65.1733 29.6667 67C29.66 68.8267 29.0078 70.3967 27.71 71.71C26.4122 73.0233 24.8422 73.6756 23 73.6667ZM56.3333 73.6667C54.5 73.6667 52.9311 73.0144 51.6267 71.71C50.3222 70.4056 49.6689 68.8356 49.6667 67C49.6645 65.1644 50.3178 63.5956 51.6267 62.2933C52.9356 60.9911 54.5045 60.3378 56.3333 60.3333C58.1622 60.3289 59.7322 60.9822 61.0434 62.2933C62.3545 63.6044 63.0067 65.1733 63 67C62.9933 68.8267 62.3411 70.3967 61.0434 71.71C59.7456 73.0233 58.1756 73.6756 56.3333 73.6667ZM17 13.6667H66.1667C67.4445 13.6667 68.4167 14.2367 69.0834 15.3767C69.75 16.5167 69.7778 17.6689 69.1667 18.8333L57.3333 40.1667C56.7222 41.2778 55.9034 42.1389 54.8767 42.75C53.85 43.3611 52.7245 43.6667 51.5 43.6667H26.6667L23 50.3333H59.6667C60.6111 50.3333 61.4033 50.6533 62.0433 51.2933C62.6833 51.9333 63.0022 52.7244 63 53.6667C62.9978 54.6089 62.6778 55.4011 62.04 56.0433C61.4022 56.6856 60.6111 57.0044 59.6667 57H23C20.5 57 18.6111 55.9033 17.3333 53.71C16.0556 51.5167 16 49.3356 17.1667 47.1667L21.6667 39L9.66668 13.6667H6.33334C5.3889 13.6667 4.59779 13.3467 3.96001 12.7067C3.32223 12.0667 3.00223 11.2756 3.00001 10.3333C2.99779 9.39111 3.31779 8.6 3.96001 7.96C4.60223 7.32 5.39334 7 6.33334 7H11.75C12.3611 7 12.9445 7.16667 13.5 7.5C14.0556 7.83333 14.4722 8.30556 14.75 8.91667L17 13.6667Z" fill="#72BF78"/>
</svg>
