<svg width="40" height="25" viewBox="0 0 40 25" fill="none" xmlns="http://www.w3.org/2000/svg">
<path d="M19.1348 12.168V13.2344H7.95117V12.168H19.1348ZM17.8359 10.0488V11.1016H9.3457V6.84961H17.7539V7.91602H10.6309V10.0488H17.8359ZM13.5293 14.1914C16.168 14.1914 17.7539 14.998 17.7539 16.4199C17.7539 17.8418 16.168 18.6484 13.5293 18.6348C10.877 18.6484 9.27734 17.8418 9.27734 16.4199C9.27734 14.998 10.877 14.1914 13.5293 14.1914ZM13.5293 15.1895C11.6562 15.2031 10.5898 15.6406 10.5898 16.4199C10.5898 17.1992 11.6562 17.6367 13.5293 17.6367C15.375 17.6367 16.4551 17.1992 16.4551 16.4199C16.4551 15.6406 15.375 15.2031 13.5293 15.1895ZM31.448 13.0977V14.1504H20.2371V13.0977H25.2V11.9355H21.6727V8.81836H28.741V7.72461H21.6453V6.69922H30.0398V9.77539H22.9578V10.9238H30.2859V11.9355H26.4852V13.0977H31.448ZM30.1082 15.0117V18.5664H28.7957V16.0508H21.4949V15.0117H30.1082Z" fill="white"/>
</svg>
