<svg width="24" height="24" viewBox="0 0 24 24" fill="none" xmlns="http://www.w3.org/2000/svg">
<path d="M14.45 11.9999L7.09999 4.64991C6.84999 4.39991 6.72899 4.10824 6.73699 3.77491C6.74499 3.44158 6.87432 3.14991 7.12499 2.89991C7.37565 2.64991 7.66732 2.52491 7.99999 2.52491C8.33265 2.52491 8.62432 2.64991 8.87499 2.89991L16.575 10.5749C16.775 10.7749 16.925 10.9999 17.025 11.2499C17.125 11.4999 17.175 11.7499 17.175 11.9999C17.175 12.2499 17.125 12.4999 17.025 12.7499C16.925 12.9999 16.775 13.2249 16.575 13.4249L8.87499 21.1249C8.62499 21.3749 8.32899 21.4959 7.98699 21.4879C7.64499 21.4799 7.34932 21.3506 7.09999 21.0999C6.85065 20.8492 6.72565 20.5576 6.72499 20.2249C6.72432 19.8922 6.84932 19.6006 7.09999 19.3499L14.45 11.9999Z" fill="black"/>
</svg>
